<?xml version="1.0" standalone="no"?>
<!DOCTYPE svg PUBLIC "-//W3C//DTD SVG 20010904//EN"
 "http://www.w3.org/TR/2001/REC-SVG-20010904/DTD/svg10.dtd">
<svg version="1.0" xmlns="http://www.w3.org/2000/svg"
 width="99.000000pt" height="109.000000pt" viewBox="0 0 99.000000 109.000000"
 preserveAspectRatio="xMidYMid meet">

<g transform="translate(0.000000,109.000000) scale(0.100000,-0.100000)"
fill="#000000" stroke="none">
<path d="M106 1058 l-38 -11 6 -51 c3 -28 6 -248 6 -488 l0 -438 183 0 c269 0
364 22 450 104 76 73 101 148 77 236 -22 83 -155 180 -245 180 -31 0 -32 14
-2 27 42 20 125 103 146 148 68 145 -28 269 -231 295 -94 12 -302 11 -352 -2z
m350 -68 c50 -25 74 -73 74 -148 -1 -77 -30 -124 -155 -248 -64 -63 -118 -114
-120 -114 -3 0 -5 119 -5 265 l0 265 82 0 c62 0 92 -5 124 -20z m92 -462 c51
-31 66 -70 67 -173 0 -119 -22 -165 -98 -201 -45 -20 -67 -24 -159 -24 l-108
0 0 115 c0 158 17 190 149 279 60 41 87 41 149 4z"/>
</g>
</svg>
