<?xml version="1.0" standalone="no"?>
<!DOCTYPE svg PUBLIC "-//W3C//DTD SVG 20010904//EN"
 "http://www.w3.org/TR/2001/REC-SVG-20010904/DTD/svg10.dtd">
<svg version="1.0" xmlns="http://www.w3.org/2000/svg"
 width="512.000000pt" height="512.000000pt" viewBox="0 0 512.000000 512.000000"
 preserveAspectRatio="xMidYMid meet">

<g transform="translate(0.000000,512.000000) scale(0.100000,-0.100000)"
fill="#000000" stroke="none">
<path d="M2395 5114 c-190 -19 -256 -28 -365 -50 -456 -93 -839 -314 -1116
-647 -301 -360 -471 -804 -546 -1432 -17 -148 -17 -702 0 -850 21 -172 51
-346 82 -473 207 -846 717 -1392 1479 -1582 443 -110 974 -104 1388 16 536
155 978 549 1142 1017 56 159 74 272 74 457 0 235 -37 399 -133 590 -118 232
-337 444 -589 567 l-100 48 -5 45 c-35 276 -74 420 -153 571 -137 262 -353
429 -644 499 -417 100 -844 -5 -1112 -274 -75 -74 -142 -165 -131 -175 9 -9
318 -221 341 -234 7 -5 44 25 95 76 135 137 271 188 498 188 202 0 340 -46
450 -148 33 -30 75 -81 94 -112 34 -55 87 -200 100 -270 5 -31 4 -33 -17 -28
-132 33 -571 40 -750 12 -206 -31 -395 -102 -532 -200 -105 -74 -207 -192
-258 -297 -57 -116 -76 -186 -84 -314 -23 -384 207 -706 601 -840 235 -80 536
-79 776 4 357 123 605 443 685 882 24 132 20 125 53 105 168 -108 297 -280
347 -460 26 -93 31 -313 11 -414 -42 -204 -163 -408 -329 -554 -308 -270 -639
-380 -1152 -381 -279 0 -492 32 -705 106 -657 231 -1021 811 -1090 1738 -35
478 28 971 173 1345 259 672 807 1018 1607 1019 273 0 479 -30 690 -100 502
-167 832 -513 1015 -1061 20 -62 39 -113 40 -113 8 0 420 112 423 115 6 5 -40
147 -83 260 -257 670 -752 1113 -1429 1279 -179 45 -361 66 -591 70 -115 2
-228 2 -250 0z m770 -2648 c49 -9 91 -19 93 -21 7 -7 -28 -220 -49 -295 -70
-255 -226 -419 -444 -465 -89 -19 -270 -19 -357 0 -154 32 -282 123 -334 238
-23 51 -28 75 -28 137 2 222 175 371 490 419 97 16 525 6 629 -13z"/>
</g>
</svg>
